<svg id="Camada_1" data-name="Camada 1" xmlns="http://www.w3.org/2000/svg" xmlns:xlink="http://www.w3.org/1999/xlink" viewBox="0 0 1125 208.26"><defs><style>.cls-1{fill:none;}.cls-2{clip-path:url(#clip-path);}.cls-3{fill:#fff;}</style><clipPath id="clip-path"><rect class="cls-1" width="1125" height="208.26"/></clipPath></defs><g class="cls-2"><path class="cls-3" d="M1091.7,96.87c0-23.62,10.5-30.68,27.45-30.68H1125V42.38c-15.74,0-26.84,6.86-33.3,18V44.2h-23V155.39h23ZM1058,122.29h-24.82c-4.24,8.68-12.11,15.54-26.24,15.54-17,0-30.06-11.1-31.68-29.47h85a70.3,70.3,0,0,0,.81-11.29c0-32.69-22.4-54.69-54.08-54.69-32.89,0-55.49,22.4-55.49,57.31S975.07,157.2,1007,157.2c27.24,0,44.8-15.54,51.06-34.91m-52.07-60.54c17.16,0,30.68,10.9,31.08,28.05H975.47c2.42-17.56,14.94-28,30.47-28M922.6,99.29c0,24-16.54,37.93-33.9,37.93-17.16,0-33.7-13.52-33.7-37.53,0-23.82,16.54-37.33,33.7-37.33,17.36,0,33.9,12.91,33.9,36.93M855,60.54V44.2H832V208.26h23v-69a50.25,50.25,0,0,0,38.74,18C923,157.2,946,133.59,946,99.29s-23-56.91-52.27-56.91c-18.16,0-31.68,8.88-38.74,18.16M801.93,99.29c0,24-16.55,37.93-33.9,37.93-17.16,0-33.7-13.52-33.7-37.53,0-23.82,16.54-37.33,33.7-37.33,17.35,0,33.9,12.91,33.9,36.93m-67.6-38.75V44.2h-23V208.26h23v-69a50.25,50.25,0,0,0,38.74,18c29.26,0,52.27-23.61,52.27-57.91s-23-56.91-52.27-56.91c-18.16,0-31.68,8.88-38.74,18.16M614.26,99.69c0-25.22,15.54-37.33,32.89-37.33,17.15,0,33.5,12.11,33.5,37.33s-16.95,37.53-34.1,37.53c-17.35,0-32.29-12.31-32.29-37.53m90,0c0-34.91-25-57.31-56.71-57.31s-56.7,22.4-56.7,57.31,24,57.51,55.7,57.51c31.88,0,57.71-22.6,57.71-57.51m-143.47-.4c0,24-16.55,37.93-33.91,37.93-17.15,0-33.7-13.52-33.7-37.53,0-23.82,16.55-37.33,33.7-37.33,17.36,0,33.91,12.91,33.91,36.93M493.18,60.54V44.2h-23V208.26h23v-69a50.27,50.27,0,0,0,38.75,18c29.26,0,52.27-23.61,52.27-57.91s-23-56.91-52.27-56.91c-18.17,0-31.68,8.88-38.75,18.16m-35.11,61.75H433.25C429,131,421.15,137.83,407,137.83c-16.95,0-30.07-11.1-31.68-29.47h85a70.3,70.3,0,0,0,.81-11.29c0-32.69-22.4-54.69-54.08-54.69-32.9,0-55.5,22.4-55.5,57.31S375.14,157.2,407,157.2c27.24,0,44.8-15.54,51.05-34.91M406,61.75c17.15,0,30.67,10.9,31.08,28.05H375.54c2.42-17.56,14.93-28,30.47-28m-87.18,93.64h22.81V89.8c0-31.08-19.58-47.42-45.61-47.42-13.32,0-25.63,5.45-33.09,14.53V44.2h-23V155.39h23V93.23c0-20.38,11.1-30.87,28.05-30.87,16.75,0,27.84,10.49,27.84,30.87ZM214.51,29.46A14.51,14.51,0,0,0,229,14.73a14.63,14.63,0,1,0-29.26,0,14.55,14.55,0,0,0,14.73,14.73M202.8,155.39h23V44.2h-23Zm-163,.2,25.83-.2L96.86,49.24l29.47,106.15h26L193.93,15.14H169.31L140.05,128.75,110.78,15.14H85L53.48,129.36,24.42,15.14H0Z"/></g></svg>